<?xml version="1.0" encoding="UTF-8"?>
<!DOCTYPE svg PUBLIC "-//W3C//DTD SVG 1.1//EN" "http://www.w3.org/Graphics/SVG/1.1/DTD/svg11.dtd">
<!-- Creator: CorelDRAW -->
<svg xmlns="http://www.w3.org/2000/svg" xml:space="preserve" width="7.33333in" height="7.33333in" style="shape-rendering:geometricPrecision; text-rendering:geometricPrecision; image-rendering:optimizeQuality; fill-rule:evenodd; clip-rule:evenodd"
viewBox="0 0 7.33333 7.33333"
 xmlns:xlink="http://www.w3.org/1999/xlink">
 <defs>
  <style type="text/css">
   <![CDATA[
    .fil4 {fill:url(#id0)}
    .fil2 {fill:url(#id1);fill-rule:nonzero}
    .fil1 {fill:url(#id2);fill-rule:nonzero}
    .fil0 {fill:url(#id3);fill-rule:nonzero}
    .fil3 {fill:url(#id4);fill-rule:nonzero}
   ]]>
  </style>
  <linearGradient id="id0" gradientUnits="userSpaceOnUse" x1="-3.93701e-006" y1="3.66667" x2="7.33333" y2="3.66667">
   <stop offset="0" style="stop-color:#E4877C"/>
   <stop offset="1" style="stop-color:#B03686"/>
  </linearGradient>
  <linearGradient id="id1" gradientUnits="userSpaceOnUse" xlink:href="#id0" x1="1.94298" y1="3.1603" x2="5.39035" y2="3.1603">
  </linearGradient>
  <linearGradient id="id2" gradientUnits="userSpaceOnUse" xlink:href="#id0" x1="2.97522" y1="5.50537" x2="4.35856" y2="5.50537">
  </linearGradient>
  <linearGradient id="id3" gradientUnits="userSpaceOnUse" xlink:href="#id0" x1="3.02875" y1="4.4363" x2="4.30059" y2="4.4363">
  </linearGradient>
  <linearGradient id="id4" gradientUnits="userSpaceOnUse" xlink:href="#id0" x1="3.17695" y1="6.14666" x2="4.15683" y2="6.14666">
  </linearGradient>
 </defs>
 <g id="Layer_x0020_1">
  <metadata id="CorelCorpID_0Corel-Layer"/>
  <path class="fil0" d="M3.43799 5.13241c0,0.0441811 0.0358189,0.08 0.08,0.08 0.0441811,0 0.08,-0.0358189 0.08,-0.08l0 -7.08661e-005 -0.000311024 0c1.1811e-005,-0.00869685 0.000811024,-0.736693 -0.340433,-1.29639 0.116366,-0.0106102 0.260961,-0.0157441 0.40589,-0.0157441 0.14898,0 0.296803,0.0054252 0.413303,0.0158976 -0.34115,0.559681 -0.340346,1.28754 -0.340335,1.29624l-0.000311024 0 0 7.08661e-005c0,0.0441811 0.0358189,0.08 0.08,0.08 0.0441811,0 0.08,-0.0358189 0.08,-0.08l0 -7.08661e-005 -0.000311024 0c-7.87402e-006,-0.00868898 -0.000822835,-0.780445 0.379193,-1.30714 0.00938189,-0.0107441 0.0160079,-0.0241339 0.0185591,-0.0392283 0.0073622,-0.043563 -0.0219843,-0.0848543 -0.0655472,-0.0922165l-0.000208661 0.000129921c-0.130646,-0.0220827 -0.347843,-0.033685 -0.564343,-0.033685 -0.207205,0 -0.416484,0.010626 -0.551685,0.0328307 -0.0137008,0.00135827 -0.0272323,0.00626772 -0.0391614,0.0149646 -0.0356969,0.0260276 -0.0435354,0.0760787 -0.0175079,0.111776l0.000299213 -0.000216535c0.384098,0.526807 0.383228,1.30407 0.38322,1.31278l-0.000311024 0 0 7.08661e-005z"/>
  <path class="fil1" d="M4.19856 5.21393l-1.06333 0 0 0.582886 1.06333 0 0 -0.582886zm-1.14333 -0.16l1.22333 0c0.0441811,0 0.08,0.0358189 0.08,0.08l0 0.716366c0,0.0114291 -0.00174803,0.0226024 -0.0048937,0.0330315 -0.00278346,0.00924409 -0.0066811,0.0178898 -0.0114882,0.0256929 -0.00437402,0.00753543 -0.00992913,0.0142795 -0.0164134,0.0199803 -0.00351969,0.00339764 -0.0072874,0.00654724 -0.0112913,0.00941732 -0.00325591,0.00248819 -0.00674409,0.00475591 -0.0104606,0.00677165l-8.26772e-005 -0.000149606 -0.000271654 0.000149606 -5.90551e-005 -0.000110236c-0.0140591,0.00755906 -0.0293071,0.0117362 -0.0451417,0.0117362l-1.18313 0c-0.0164213,0 -0.0320866,-0.00441732 -0.0463307,-0.0123504 -0.00770472,-0.00431102 -0.0147992,-0.00967323 -0.0211339,-0.0159094 -0.00175591,-0.00157874 -0.00345669,-0.00324409 -0.00509055,-0.00499606 -0.00192126,-0.00205512 -0.00371654,-0.0041811 -0.00538189,-0.00637795 -0.00297244,-0.00361417 -0.00566535,-0.00753543 -0.00803937,-0.0117559l0.0005 -0.000279528 -3.14961e-005 -6.69291e-005 -0.000409449 0.000228346c-0.00453937,-0.00808268 -0.00817717,-0.0174449 -0.0106969,-0.0277638 -0.00224803,-0.00931496 -0.00348819,-0.0185276 -0.00348819,-0.027248l0 -0.716366c0,-0.0441811 0.0358189,-0.08 0.08,-0.08zm0.00387402 0.812315l-0.000370079 0.000204724 3.93701e-006 3.93701e-006 0.000366142 -0.000208661z"/>
  <path class="fil2" d="M3.66667 5.05393l0.000224409 0 0.54202 0c0.0237441,-0.194933 0.0872008,-0.365783 0.172579,-0.525043 0.339445,-0.502976 0.848858,-1.08479 0.848858,-1.69876 0,-0.212276 -0.0420394,-0.414295 -0.118209,-0.598185 -0.0790236,-0.190791 -0.195228,-0.362882 -0.339705,-0.507358 -0.144476,-0.144476 -0.316567,-0.260681 -0.507358,-0.339705 -0.18389,-0.0761693 -0.385909,-0.118209 -0.598185,-0.118209l-0.000224409 0 -0.000224409 0c-0.212276,0 -0.414295,0.0420394 -0.598185,0.118209 -0.190791,0.0790236 -0.362882,0.195228 -0.507358,0.339705 -0.144476,0.144476 -0.260681,0.316567 -0.339705,0.507358 -0.0761693,0.18389 -0.118209,0.385909 -0.118209,0.598185 0,0.613969 0.509413,1.19578 0.848858,1.69876 0.085378,0.15926 0.148835,0.33011 0.172579,0.525043l0.54202 0 0.000224409 0zm0 -3.94726l0.000224409 0c0.232941,0 0.455476,0.0464843 0.658807,0.130705 0.211417,0.0875669 0.401299,0.21552 0.559862,0.374083 0.158563,0.158563 0.286516,0.348445 0.374083,0.559862 0.0842205,0.203331 0.130705,0.425866 0.130705,0.658807 0,0.568106 -0.276106,0.938583 -0.542122,1.29262 -0.00125591,0.00202362 -0.00261417,0.004 -0.00406693,0.00592913l-1.1811e-005 1.9685e-005c-0.00140945,0.00186614 -0.00290157,0.00369291 -0.00449606,0.00546063 -0.116457,0.154988 -0.230433,0.307244 -0.317539,0.469732 -0.0855591,0.159594 -0.14652,0.331626 -0.160571,0.531165 -0.000602362,0.0436654 -0.0361772,0.078878 -0.0799843,0.078878l-0.614665 0 -0.000224409 0 -0.000224409 0 -0.614665 0c-0.0438071,0 -0.0793819,-0.0352126 -0.0799843,-0.078878 -0.0140512,-0.199539 -0.0750118,-0.371571 -0.160571,-0.531165 -0.0871063,-0.162488 -0.201083,-0.314744 -0.317539,-0.469732 -0.00159449,-0.00176772 -0.00308661,-0.00359449 -0.00449606,-0.00546063l-1.1811e-005 -1.9685e-005c-0.00145276,-0.00192913 -0.00281102,-0.00390551 -0.00406693,-0.00592913 -0.266016,-0.354035 -0.542122,-0.724512 -0.542122,-1.29262 0,-0.232941 0.0464843,-0.455476 0.130705,-0.658807 0.0875669,-0.211417 0.21552,-0.401299 0.374083,-0.559862 0.158563,-0.158563 0.348445,-0.286516 0.559862,-0.374083 0.203331,-0.0842205 0.425866,-0.130705 0.658807,-0.130705l0.000224409 0z"/>
  <path class="fil3" d="M3.25695 6.06666c-0.0441811,0 -0.08,0.0358189 -0.08,0.08 0,0.0441811 0.0358189,0.08 0.08,0.08l0.819874 0c0.0441811,0 0.08,-0.0358189 0.08,-0.08 0,-0.0441811 -0.0358189,-0.08 -0.08,-0.08l-0.819874 0z"/>
  <path class="fil4" d="M1.28486 0l4.76361 0c0.706677,0 1.28486,0.578185 1.28486,1.28486l0 4.76361c0,0.706677 -0.578185,1.28486 -1.28486,1.28486l-4.76361 0c-0.706677,0 -1.28486,-0.578185 -1.28486,-1.28486l0 -4.76361c0,-0.706677 0.578185,-1.28486 1.28486,-1.28486zm3.93701e-006 0.321209l4.76361 0c0.530008,0 0.96365,0.433642 0.96365,0.96365l0 4.76361c0,0.530008 -0.433642,0.96365 -0.96365,0.96365l-4.76361 0c-0.530008,0 -0.96365,-0.433642 -0.96365,-0.96365l0 -4.76361c0,-0.530008 0.433642,-0.96365 0.96365,-0.96365z"/>
 </g>
</svg>
